<?xml version="1.0" encoding="UTF-8"?>
<svg width="100pt" height="100pt" version="1.1" viewBox="0 0 100 100" xmlns="http://www.w3.org/2000/svg">
 <g>
  <path d="m100 50c0 27.613-22.387 50-50 50s-50-22.387-50-50 22.387-50 50-50 50 22.387 50 50" fill="#ffd65b"/>
  <path d="m66.246 54.598c-0.82031-3.0859-3.4023-5.4141-6.5508-5.793l-2.832-0.37891-0.82031-2.457c2.2656-1.5742 4.0312-4.0312 4.6602-6.9922 0.82031-0.44141 2.1406-1.5117 2.1406-4.2188 0-1.9531-0.31641-3.1484-1.0078-3.7773-0.1875-0.125-0.31641-0.1875-0.50391-0.31641-0.625-5.9805-5.4141-10.578-11.332-10.578s-10.707 4.5977-11.336 10.578c-0.1875 0.0625-0.31641 0.1875-0.44141 0.31641-0.69141 0.69141-1.0078 1.8281-1.0078 3.7773 0 2.707 1.3242 3.7773 2.0781 4.2188 0.69141 2.9609 2.3945 5.4141 4.6602 6.9922l-0.82031 2.457-2.7695 0.37891c-3.2109 0.44141-5.793 2.707-6.5508 5.793l-0.1875 0.82031h32.875zm-23.805-26.512c0.0625-0.50391 0.50391-0.82031 0.94531-0.69141 1.6367 0.37891 4.0312 0.62891 6.6133 0.62891s4.9141-0.25 6.6133-0.62891c0.44141-0.125 0.82031 0.1875 0.94531 0.69141 0.125 0.88281 0.1875 1.8906 0.31641 2.832l-5.793 0.50391c-0.69141 0.0625-1.3867 0.125-2.0156 0.125-0.69141 0-1.3867 0-2.0156-0.125l-5.793-0.50391c-0.003906-0.94531 0.12109-2.0156 0.18359-2.832zm2.332 21.285 0.82031-2.457c1.3867 0.62891 2.832 1.0078 4.4102 1.0078 1.5117 0 3.0234-0.37891 4.3438-1.0078l0.82031 2.457c-3.0898 2.2656-7.2461 2.2656-10.395 0zm5.2266-3.3398c-4.3438 0-8.0625-3.3359-8.9414-7.9336-0.0625-0.37891-0.31641-0.62891-0.69141-0.75391-0.125 0-1.2578-0.37891-1.2578-2.582 0-1.1953 0.125-1.7617 0.25-2.0781h0.31641c0 0.31641 0.1875 1.5117 0.50391 1.5117h1.3242c0.25 0 0.50391-0.25 0.50391-0.50391 0 0 0.0625-0.50391 0.125-1.1953l0.94531 0.31641c0 1.1953 0.0625 1.9531 0.31641 2.3945 0.56641 1.0703 1.3867 1.6367 2.582 1.6367 1.5117 0 2.5195-0.50391 3.0859-1.4492 0.31641-0.50391 0.44141-1.1953 0.50391-2.332 0-0.1875 0.125-0.31641 0.31641-0.31641h0.56641c0.125 0 0.25 0.125 0.31641 0.31641 0.0625 1.1328 0.25 1.8281 0.50391 2.332 0.50391 0.94531 1.5117 1.4492 3.0234 1.4492 1.1953 0 2.0156-0.56641 2.582-1.6367 0.1875-0.44141 0.31641-1.2578 0.31641-2.3945l0.88281-0.31641c0.0625 0.69141 0.125 1.1953 0.125 1.1953 0 0.31641 0.1875 0.50391 0.50391 0.50391h1.3242c0.25 0 0.50391-1.1953 0.50391-1.5117h0.31641c0.125 0.31641 0.25 0.94531 0.25 2.0781 0 2.2031-1.1953 2.582-1.2578 2.582-0.31641 0.0625-0.62891 0.37891-0.69141 0.75391-1.0234 4.5977-4.8047 7.9336-9.1484 7.9336z" fill="#ff001b"/>
  <path d="m52.328 39.797c-0.88281 1.0078-3.7773 1.0078-4.6602 0-0.25-0.25-0.62891-0.31641-0.94531-0.0625-0.25 0.25-0.31641 0.62891-0.0625 0.94531 0.69141 0.82031 1.9531 1.3242 3.3359 1.3242 1.3867 0 2.6445-0.50391 3.3359-1.3242 0.25-0.25 0.1875-0.69141-0.0625-0.94531-0.30859-0.25-0.6875-0.25-0.94141 0.0625z" fill="#ff001b"/>
  <path d="m67.254 57.621h-34.508c-1.4492 0-2.582 1.2578-2.3945 2.707l2.332 17.508c0.1875 1.1953 1.1953 2.0781 2.3945 2.0781h29.914c1.1953 0 2.2031-0.88281 2.3945-2.0781l2.332-17.508c0.17969-1.4492-0.95312-2.707-2.4648-2.707zm-17.254 13.602c-1.3867 0-2.5195-1.1328-2.5195-2.5195s1.1328-2.5195 2.5195-2.5195 2.5195 1.1328 2.5195 2.5195c0 1.4492-1.1328 2.5195-2.5195 2.5195z" fill="#ff001b"/>
 </g>
</svg>
